<svg xmlns="http://www.w3.org/2000/svg" width="18" height="18" viewBox="0 0 18 18">
  <g fill="#811DFF" fill-rule="evenodd">
    <rect width="18" height="18" fill-opacity=".1" rx="3"/>
    <path d="M9.58246118,11.3982846 C9.73637967,11.7523815 10.0892726,12 10.5,12 C11.0522847,12 11.5,11.5522847 11.5,11 C11.5,10.7238576 11.7238576,10.5 12,10.5 C12.2761424,10.5 12.5,10.7238576 12.5,11 C12.5,12.1045695 11.6045695,13 10.5,13 C9.90265374,13 9.36647223,12.7381226 9,12.3229122 C8.63352777,12.7381226 8.09734626,13 7.5,13 C6.3954305,13 5.5,12.1045695 5.5,11 C5.5,10.7238576 5.72385763,10.5 6,10.5 C6.27614237,10.5 6.5,10.7238576 6.5,11 C6.5,11.5522847 6.94771525,12 7.5,12 C7.91076378,12 8.26368291,11.7523376 8.41757976,11.3981904 C8.37261776,11.3659896 8.32966767,11.3296677 8.28924346,11.2892435 L7.71075654,10.7107565 C7.3125,10.3125 7.45190985,10 8.0093689,10 L9.9906311,10 C10.5566468,10 10.6817835,10.3182165 10.2892435,10.7107565 L9.71075654,11.2892435 C9.67023294,11.3297671 9.62730255,11.3661081 9.58246118,11.3982846 Z M6,9 C5.44771525,9 5,8.55228475 5,8 C5,7.44771525 5.44771525,7 6,7 C6.55228475,7 7,7.44771525 7,8 C7,8.55228475 6.55228475,9 6,9 Z M12,9 C11.4477153,9 11,8.55228475 11,8 C11,7.44771525 11.4477153,7 12,7 C12.5522847,7 13,7.44771525 13,8 C13,8.55228475 12.5522847,9 12,9 Z"/>
    <path d="M15 8.5C15 8.22385763 15.2157526 8 15.495389 8L17.504611 8C17.7782068 8 18 8.23193359 18 8.5 18 8.77614237 17.7842474 9 17.504611 9L15.495389 9C15.2217932 9 15 8.76806641 15 8.5zM15 10.5C15 10.2238576 15.2157526 10 15.495389 10L17.504611 10C17.7782068 10 18 10.2319336 18 10.5 18 10.7761424 17.7842474 11 17.504611 11L15.495389 11C15.2217932 11 15 10.7680664 15 10.5zM0 8.5C0 8.22385763.215752602 8 .495388985 8L2.50461102 8C2.7782068 8 3 8.23193359 3 8.5 3 8.77614237 2.7842474 9 2.50461102 9L.495388985 9C.221793203 9 0 8.76806641 0 8.5zM0 10.5C0 10.2238576.215752602 10 .495388985 10L2.50461102 10C2.7782068 10 3 10.2319336 3 10.5 3 10.7761424 2.7842474 11 2.50461102 11L.495388985 11C.221793203 11 0 10.7680664 0 10.5z" opacity=".5"/>
  </g>
</svg>
